<?xml version="1.0" standalone="no"?><!-- Generator: Gravit.io --><svg xmlns="http://www.w3.org/2000/svg" xmlns:xlink="http://www.w3.org/1999/xlink" style="isolation:isolate" viewBox="0 0 124.833 305.148" width="124.833" height="305.148"><defs><clipPath id="_clipPath_Z1GzTTvdy3NJqmVAmESWZ25U5tuk17kx"><rect width="124.833" height="305.148"/></clipPath></defs><g clip-path="url(#_clipPath_Z1GzTTvdy3NJqmVAmESWZ25U5tuk17kx)"><g id="Group"><path d=" M 62.417 83.222 C 39.468 83.222 20.806 64.56 20.806 41.611 C 20.806 18.663 39.468 0 62.417 0 C 85.365 0 104.028 18.663 104.028 41.611 C 104.028 64.56 85.365 83.222 62.417 83.222 Z  M 0 152.574 L 0 208.056 L 20.806 221.926 L 27.741 249.667 L 34.676 305.148 L 90.157 305.148 L 97.093 249.667 L 104.028 221.926 L 124.833 208.056 L 124.833 152.574 C 124.833 121.934 104.028 90.157 62.417 90.157 C 20.806 90.157 0 121.934 0 152.574 Z " fill="rgb(255,183,77)"/><path d=" M 104.028 152.574 L 124.833 152.574 C 124.833 121.934 104.028 90.157 62.417 90.157 C 20.806 90.157 0 121.934 0 152.574 L 20.806 152.574 L 20.806 221.926 L 104.028 221.926 L 104.028 152.574 Z " fill="rgb(76,175,80)"/><path d=" M 20.806 201.12 L 104.028 201.12 L 104.028 249.667 L 20.806 249.667 L 20.806 201.12 Z " fill="rgb(63,81,181)"/><path d=" M 55.481 249.667 L 62.417 221.926 L 69.352 249.667 L 55.481 249.667 Z " fill="rgb(26,35,126)"/><path d=" M 55.481 249.667 L 69.352 249.667 L 69.352 305.148 L 55.481 305.148 L 55.481 249.667 Z " fill="rgb(255,167,38)"/><path d=" M 20.806 138.704 L 1.491 138.704 C 0.524 143.264 0.024 147.912 0 152.574 L 20.806 152.574 L 20.806 138.704 Z  M 104.028 138.704 L 104.028 152.574 L 124.833 152.574 C 124.833 147.941 124.292 143.281 123.342 138.704 L 104.028 138.704 Z  M 62.417 90.157 C 51.528 90.157 42.097 92.377 34.052 96.142 C 42.619 101.29 52.422 104.015 62.417 104.028 C 72.411 104.015 82.215 101.29 90.782 96.142 C 82.737 92.377 73.305 90.157 62.417 90.157 Z " fill="rgb(46,125,50)"/></g></g></svg>