<?xml version="1.0" standalone="no"?><!-- Generator: Gravit.io --><svg xmlns="http://www.w3.org/2000/svg" xmlns:xlink="http://www.w3.org/1999/xlink" style="isolation:isolate" viewBox="0 0 154.695 307.92" width="154.695" height="307.92"><defs><clipPath id="_clipPath_cYn7PSKJ327Mdt11A6GIw8TS8mnIwPO5"><rect width="154.695" height="307.92"/></clipPath></defs><g clip-path="url(#_clipPath_cYn7PSKJ327Mdt11A6GIw8TS8mnIwPO5)"><g id="Group"><path d=" M 13.996 153.96 L 13.996 209.945 L 34.991 223.941 L 41.989 251.934 L 48.987 307.92 L 104.973 307.92 L 111.971 251.934 L 118.969 223.941 L 139.963 209.945 L 139.963 153.96 C 139.963 125.967 118.969 90.976 76.98 90.976 C 34.991 90.976 13.996 125.967 13.996 153.96 Z  M 76.98 83.978 C 53.823 83.978 34.991 65.139 34.991 41.989 C 34.991 18.839 53.823 0 76.98 0 C 100.137 0 118.969 18.839 118.969 41.989 C 118.969 65.139 100.137 83.978 76.98 83.978 Z " fill="rgb(255,183,77)"/><rect x="69.982" y="237.938" width="13.996" height="69.982" transform="matrix(1,0,0,1,0,0)" fill="rgb(255,167,38)"/><path d=" M 139.963 153.96 C 139.963 125.967 118.969 90.976 76.98 90.976 C 34.991 90.976 13.996 125.967 13.996 153.96 L 38.707 153.96 L 20.995 237.938 C 20.995 237.938 34.991 251.934 76.98 251.934 C 76.98 251.934 132.965 237.938 132.965 237.938 L 115.687 153.96 L 139.963 153.96 Z " fill="rgb(245,0,87)"/><g id="Group"><path d=" M 116.52 27.993 C 110.732 11.715 95.217 0 76.98 0 C 58.743 0 43.228 11.715 37.44 27.993 L 116.52 27.993 Z " fill="rgb(121,85,72)"/><path d=" M 41.989 20.995 C 27.993 20.995 0 29.308 0 69.982 L 27.993 69.982 C 27.993 69.982 28.867 27.993 41.989 27.993 L 41.989 20.995 Z  M 112.706 20.995 C 126.702 20.995 154.695 29.308 154.695 69.982 L 126.702 69.982 C 126.702 69.982 125.827 27.993 112.706 27.993 L 112.706 20.995 Z " fill="rgb(121,85,72)"/></g></g></g></svg>