<?xml version="1.0" standalone="no"?><!-- Generator: Gravit.io --><svg xmlns="http://www.w3.org/2000/svg" xmlns:xlink="http://www.w3.org/1999/xlink" style="isolation:isolate" viewBox="0 0 292.225 120.665" width="292.225" height="120.665"><defs><clipPath id="_clipPath_NnQosVNcUOZbzLNX14JgnV64XWgBqB4n"><rect width="292.225" height="120.665"/></clipPath></defs><g clip-path="url(#_clipPath_NnQosVNcUOZbzLNX14JgnV64XWgBqB4n)"><g id="Group"><linearGradient id="_lgradient_0" x1="50%" y1="99.07222222222221%" x2="49.999999999999986%" y2="152.0222222222222%"><stop offset="0%" stop-opacity="1" style="stop-color:rgb(109,199,255)"/><stop offset="100%" stop-opacity="1" style="stop-color:rgb(230,171,255)"/></linearGradient><path d=" M 32.668 116.585 L 26.543 114.544 L 20.417 116.585 L 20.417 98.208 L 32.668 98.208 L 32.668 116.585 Z " fill="url(#_lgradient_0)"/><linearGradient id="_lgradient_1" x1="50%" y1="-1.4423274390583094%" x2="49.999999999999986%" y2="101.72446962190446%"><stop offset="0%" stop-opacity="1" style="stop-color:rgb(26,109,255)"/><stop offset="100%" stop-opacity="1" style="stop-color:rgb(200,34,255)"/></linearGradient><path d=" M 67.378 20.621 L 36.751 20.621 L 36.751 18.581 C 36.75 16.326 34.923 14.498 32.668 14.496 L 20.417 14.496 C 18.165 14.496 16.334 16.327 16.334 18.581 L 16.334 20.621 L 10.209 20.621 C 4.58 20.621 0 25.201 0 30.832 L 0 104.337 C 0.007 109.972 4.574 114.537 10.209 114.542 L 16.334 114.542 L 16.334 116.571 C 16.334 118.131 17.202 119.534 18.596 120.232 C 19.982 120.927 21.642 120.777 22.88 119.844 L 26.543 117.098 L 30.204 119.844 C 31.443 120.777 33.103 120.927 34.489 120.232 C 35.879 119.542 36.756 118.123 36.751 116.571 L 36.751 114.542 L 67.378 114.542 C 73.007 114.542 77.586 109.966 77.586 104.337 L 77.586 30.832 C 77.581 25.196 73.014 20.628 67.378 20.621 L 67.378 20.621 Z  M 20.417 18.579 L 32.668 18.579 L 32.668 20.621 L 20.417 20.621 L 20.417 18.579 Z  M 16.334 102.291 L 12.25 102.291 L 12.25 98.208 L 16.334 98.208 L 16.334 102.291 Z  M 28.991 113.831 C 27.537 112.751 25.548 112.751 24.095 113.831 L 20.417 116.571 L 20.417 98.208 L 32.666 98.208 L 32.654 116.577 L 28.991 113.831 Z  M 36.751 98.208 L 65.336 98.208 L 65.336 102.291 L 36.751 102.291 L 36.751 98.208 Z  M 73.503 104.337 C 73.498 107.717 70.758 110.456 67.378 110.458 L 36.751 110.458 L 36.751 106.375 L 65.336 106.375 C 67.59 106.375 69.417 104.549 69.419 102.295 L 69.419 98.212 C 69.418 95.956 67.591 94.127 65.336 94.124 L 12.25 94.124 C 9.998 94.124 8.167 95.958 8.167 98.212 L 8.167 102.295 C 8.169 104.549 9.997 106.375 12.25 106.375 L 16.334 106.375 L 16.334 110.458 L 10.209 110.458 C 6.832 110.458 4.083 107.712 4.083 104.337 L 4.083 30.832 C 4.087 27.45 6.827 24.709 10.209 24.705 L 67.378 24.705 C 70.755 24.705 73.503 27.453 73.503 30.832 L 73.503 104.337 Z " fill="url(#_lgradient_1)"/><linearGradient id="_lgradient_2" x1="50%" y1="-157.50000000000003%" x2="49.9999999999999%" y2="378.9500000000001%"><stop offset="0%" stop-opacity="1" style="stop-color:rgb(26,109,255)"/><stop offset="100%" stop-opacity="1" style="stop-color:rgb(200,34,255)"/></linearGradient><path d=" M 26.543 45.122 L 22.396 45.122 C 19.049 45.127 16.337 47.839 16.334 51.186 L 16.334 65.54 L 20.417 65.54 L 20.417 61.456 L 28.584 61.456 L 28.584 65.54 L 32.668 65.54 L 32.668 51.186 C 32.668 47.842 29.92 45.122 26.543 45.122 Z  M 20.417 57.373 L 20.417 51.186 C 20.417 50.093 21.303 49.207 22.396 49.206 L 26.543 49.206 C 27.649 49.206 28.584 50.112 28.584 51.186 L 28.584 57.373 L 20.417 57.373 Z " fill="url(#_lgradient_2)"/><linearGradient id="_lgradient_3" x1="50%" y1="-787.5%" x2="49.9999999999995%" y2="1894.7500000000002%"><stop offset="0%" stop-opacity="1" style="stop-color:rgb(26,109,255)"/><stop offset="100%" stop-opacity="1" style="stop-color:rgb(200,34,255)"/></linearGradient><rect x="36.751" y="45.122" width="24.501" height="4.083" transform="matrix(1,0,0,1,0,0)" fill="url(#_lgradient_3)"/><linearGradient id="_lgradient_4" x1="50%" y1="-987.5%" x2="49.9999999999995%" y2="1694.7500000000002%"><stop offset="0%" stop-opacity="1" style="stop-color:rgb(26,109,255)"/><stop offset="100%" stop-opacity="1" style="stop-color:rgb(200,34,255)"/></linearGradient><rect x="36.751" y="53.289" width="24.501" height="4.083" transform="matrix(1,0,0,1,0,0)" fill="url(#_lgradient_4)"/><linearGradient id="_lgradient_5" x1="50%" y1="-1187.5%" x2="49.9999999999995%" y2="1494.7500000000002%"><stop offset="0%" stop-opacity="1" style="stop-color:rgb(26,109,255)"/><stop offset="100%" stop-opacity="1" style="stop-color:rgb(200,34,255)"/></linearGradient><rect x="36.751" y="61.456" width="24.501" height="4.083" transform="matrix(1,0,0,1,0,0)" fill="url(#_lgradient_5)"/><linearGradient id="_lgradient_6" x1="50%" y1="-1387.5%" x2="49.9999999999995%" y2="1294.7500000000002%"><stop offset="0%" stop-opacity="1" style="stop-color:rgb(26,109,255)"/><stop offset="100%" stop-opacity="1" style="stop-color:rgb(200,34,255)"/></linearGradient><rect x="16.334" y="69.623" width="16.334" height="4.083" transform="matrix(1,0,0,1,0,0)" fill="url(#_lgradient_6)"/><linearGradient id="_lgradient_7" x1="50%" y1="-1387.5%" x2="49.9999999999995%" y2="1294.7500000000002%"><stop offset="0%" stop-opacity="1" style="stop-color:rgb(26,109,255)"/><stop offset="100%" stop-opacity="1" style="stop-color:rgb(200,34,255)"/></linearGradient><rect x="36.751" y="69.623" width="24.501" height="4.083" transform="matrix(1,0,0,1,0,0)" fill="url(#_lgradient_7)"/><linearGradient id="_lgradient_8" x1="50%" y1="-91.69999999999999%" x2="49.999999999999936%" y2="233.50000000000009%"><stop offset="0%" stop-opacity="1" style="stop-color:rgb(109,199,255)"/><stop offset="100%" stop-opacity="1" style="stop-color:rgb(230,171,255)"/></linearGradient><rect x="20.417" y="18.579" width="12.25" height="2.042" transform="matrix(1,0,0,1,0,0)" fill="url(#_lgradient_8)"/></g><linearGradient id="_lgradient_9" x1="50%" y1="-1.4423274390583094%" x2="49.999999999999986%" y2="101.72446962190446%"><stop offset="0%" stop-opacity="1" style="stop-color:rgb(26,109,255)"/><stop offset="100%" stop-opacity="1" style="stop-color:rgb(200,34,255)"/></linearGradient><path d=" M 101.853 54.148 L 101.853 54.148 L 101.853 54.148 Q 100.71 58.279 99.875 62.366 L 99.875 62.366 L 99.875 62.366 Q 99.04 66.453 98.447 70.518 L 98.447 70.518 L 98.447 70.518 Q 97.854 74.583 97.436 78.626 L 97.436 78.626 L 97.436 78.626 Q 97.019 82.669 96.689 86.69 L 96.689 86.69 L 88.405 86.14 L 88.405 86.14 Q 87.9 82.097 87.395 78.087 L 87.395 78.087 L 87.395 78.087 Q 86.889 74.077 86.285 70.089 L 86.285 70.089 L 86.285 70.089 Q 85.681 66.101 84.956 62.157 L 84.956 62.157 L 84.956 62.157 Q 84.23 58.213 83.308 54.28 L 83.308 54.28 L 83.308 54.28 Q 83.747 54.28 84.187 54.313 L 84.187 54.313 L 84.187 54.313 Q 84.626 54.346 85.021 54.346 L 85.021 54.346 L 85.021 54.346 Q 86.252 54.346 87.373 54.28 L 87.373 54.28 L 87.373 54.28 Q 88.493 54.214 89.79 54.148 L 89.79 54.148 L 89.79 54.148 Q 89.943 57.312 90.207 60.707 L 90.207 60.707 L 90.207 60.707 Q 90.471 64.102 90.822 67.563 L 90.822 67.563 L 90.822 67.563 Q 91.174 71.023 91.613 74.473 L 91.613 74.473 L 91.613 74.473 Q 92.053 77.923 92.58 81.153 L 92.58 81.153 L 92.58 81.153 Q 93.129 77.923 93.602 74.473 L 93.602 74.473 L 93.602 74.473 Q 94.074 71.023 94.426 67.552 L 94.426 67.552 L 94.426 67.552 Q 94.777 64.08 95.008 60.674 L 95.008 60.674 L 95.008 60.674 Q 95.239 57.268 95.327 54.104 L 95.327 54.104 L 95.327 54.104 Q 96.25 54.214 97.106 54.247 L 97.106 54.247 L 97.106 54.247 Q 97.963 54.28 98.798 54.28 L 98.798 54.28 L 98.798 54.28 Q 100.227 54.28 101.853 54.148 Z  M 111.213 86.953 L 111.213 86.953 L 111.213 86.953 Q 109.038 86.953 107.467 86.009 L 107.467 86.009 L 107.467 86.009 Q 105.896 85.064 104.874 83.372 L 104.874 83.372 L 104.874 83.372 Q 103.852 81.68 103.369 79.351 L 103.369 79.351 L 103.369 79.351 Q 102.885 77.022 102.885 74.275 L 102.885 74.275 L 102.885 74.275 Q 102.885 71.089 103.457 68.43 L 103.457 68.43 L 103.457 68.43 Q 104.028 65.772 105.137 63.86 L 105.137 63.86 L 105.137 63.86 Q 106.247 61.949 107.884 60.883 L 107.884 60.883 L 107.884 60.883 Q 109.521 59.817 111.652 59.817 L 111.652 59.817 L 111.652 59.817 Q 113.806 59.817 115.366 60.718 L 115.366 60.718 L 115.366 60.718 Q 116.926 61.619 117.948 63.245 L 117.948 63.245 L 117.948 63.245 Q 118.969 64.871 119.453 67.134 L 119.453 67.134 L 119.453 67.134 Q 119.936 69.397 119.936 72.122 L 119.936 72.122 L 119.936 72.122 Q 119.936 73.528 119.771 75.176 L 119.771 75.176 L 119.771 75.176 Q 119.606 76.824 119.222 78.472 L 119.222 78.472 L 119.222 78.472 Q 118.837 80.12 118.2 81.647 L 118.2 81.647 L 118.2 81.647 Q 117.563 83.174 116.596 84.361 L 116.596 84.361 L 116.596 84.361 Q 115.629 85.547 114.3 86.25 L 114.3 86.25 L 114.3 86.25 Q 112.971 86.953 111.213 86.953 Z  M 114.641 70.496 L 114.641 70.496 L 114.641 70.496 Q 114.641 68.826 114.487 67.497 L 114.487 67.497 L 114.487 67.497 Q 114.333 66.167 113.992 65.244 L 113.992 65.244 L 113.992 65.244 Q 113.652 64.322 113.135 63.827 L 113.135 63.827 L 113.135 63.827 Q 112.619 63.333 111.894 63.333 L 111.894 63.333 L 111.894 63.333 Q 111.103 63.333 110.422 64.168 L 110.422 64.168 L 110.422 64.168 Q 109.741 65.003 109.224 66.585 L 109.224 66.585 L 109.224 66.585 Q 108.708 68.167 108.411 70.441 L 108.411 70.441 L 108.411 70.441 Q 108.115 72.715 108.115 75.572 L 108.115 75.572 L 108.115 75.572 Q 108.115 77.417 108.291 78.878 L 108.291 78.878 L 108.291 78.878 Q 108.466 80.34 108.818 81.361 L 108.818 81.361 L 108.818 81.361 Q 109.169 82.383 109.686 82.921 L 109.686 82.921 L 109.686 82.921 Q 110.202 83.46 110.905 83.46 L 110.905 83.46 L 110.905 83.46 Q 111.608 83.46 112.158 82.877 L 112.158 82.877 L 112.158 82.877 Q 112.707 82.295 113.114 81.306 L 113.114 81.306 L 113.114 81.306 Q 113.52 80.318 113.817 79.01 L 113.817 79.01 L 113.817 79.01 Q 114.113 77.703 114.289 76.264 L 114.289 76.264 L 114.289 76.264 Q 114.465 74.825 114.553 73.33 L 114.553 73.33 L 114.553 73.33 Q 114.641 71.836 114.641 70.496 Z  M 138.525 67.024 L 138.525 67.024 L 138.525 67.024 Q 138.525 68.54 138.118 69.43 L 138.118 69.43 L 138.118 69.43 Q 137.712 70.32 137.152 70.771 L 137.152 70.771 L 137.152 70.771 Q 136.591 71.221 136.009 71.353 L 136.009 71.353 L 136.009 71.353 Q 135.427 71.485 135.053 71.485 L 135.053 71.485 L 135.053 71.485 Q 134.68 71.485 134.152 71.364 L 134.152 71.364 L 134.152 71.364 Q 133.625 71.243 133.131 70.88 L 133.131 70.88 L 133.131 70.88 Q 132.636 70.518 132.296 69.848 L 132.296 69.848 L 132.296 69.848 Q 131.955 69.178 131.955 68.101 L 131.955 68.101 L 131.955 68.101 Q 131.977 67.508 132.175 66.936 L 132.175 66.936 L 132.175 66.936 Q 132.351 66.453 132.702 65.948 L 132.702 65.948 L 132.702 65.948 Q 133.054 65.442 133.713 65.091 L 133.713 65.091 L 133.713 65.091 Q 133.339 64.256 132.889 63.816 L 132.889 63.816 L 132.889 63.816 Q 132.438 63.377 132.021 63.157 L 132.021 63.157 L 132.021 63.157 Q 131.538 62.915 131.054 62.849 L 131.054 62.849 L 131.054 62.849 Q 130.241 62.849 129.582 63.596 L 129.582 63.596 L 129.582 63.596 Q 128.923 64.344 128.461 65.695 L 128.461 65.695 L 128.461 65.695 Q 128 67.046 127.747 68.936 L 127.747 68.936 L 127.747 68.936 Q 127.495 70.825 127.495 73.111 L 127.495 73.111 L 127.495 73.111 Q 127.495 75.374 127.659 77.34 L 127.659 77.34 L 127.659 77.34 Q 127.824 79.307 128.198 80.768 L 128.198 80.768 L 128.198 80.768 Q 128.571 82.229 129.208 83.064 L 129.208 83.064 L 129.208 83.064 Q 129.846 83.899 130.791 83.899 L 130.791 83.899 L 130.791 83.899 Q 131.296 83.877 131.801 83.658 L 131.801 83.658 L 131.801 83.658 Q 132.241 83.482 132.735 83.075 L 132.735 83.075 L 132.735 83.075 Q 133.229 82.669 133.625 81.922 L 133.625 81.922 L 133.625 81.922 Q 132.856 81.548 132.449 81.01 L 132.449 81.01 L 132.449 81.01 Q 132.043 80.471 131.867 79.966 L 131.867 79.966 L 131.867 79.966 Q 131.647 79.373 131.625 78.736 L 131.625 78.736 L 131.625 78.736 Q 131.625 77.681 132.043 77.022 L 132.043 77.022 L 132.043 77.022 Q 132.46 76.363 133.032 75.978 L 133.032 75.978 L 133.032 75.978 Q 133.603 75.594 134.196 75.451 L 134.196 75.451 L 134.196 75.451 Q 134.79 75.308 135.141 75.308 L 135.141 75.308 L 135.141 75.308 Q 135.515 75.308 136.064 75.462 L 136.064 75.462 L 136.064 75.462 Q 136.613 75.616 137.119 76.055 L 137.119 76.055 L 137.119 76.055 Q 137.624 76.494 137.987 77.296 L 137.987 77.296 L 137.987 77.296 Q 138.349 78.098 138.349 79.395 L 138.349 79.395 L 138.349 79.395 Q 138.349 80.691 137.723 82.075 L 137.723 82.075 L 137.723 82.075 Q 137.097 83.46 136.031 84.602 L 136.031 84.602 L 136.031 84.602 Q 134.965 85.745 133.57 86.47 L 133.57 86.47 L 133.57 86.47 Q 132.175 87.195 130.637 87.195 L 130.637 87.195 L 130.637 87.195 Q 129.604 87.195 128.549 86.909 L 128.549 86.909 L 128.549 86.909 Q 127.495 86.624 126.528 85.965 L 126.528 85.965 L 126.528 85.965 Q 125.561 85.305 124.704 84.229 L 124.704 84.229 L 124.704 84.229 Q 123.847 83.152 123.221 81.592 L 123.221 81.592 L 123.221 81.592 Q 122.595 80.032 122.232 77.934 L 122.232 77.934 L 122.232 77.934 Q 121.87 75.835 121.87 73.111 L 121.87 73.111 L 121.87 73.111 Q 121.87 70.386 122.265 68.332 L 122.265 68.332 L 122.265 68.332 Q 122.661 66.277 123.353 64.805 L 123.353 64.805 L 123.353 64.805 Q 124.045 63.333 124.946 62.366 L 124.946 62.366 L 124.946 62.366 Q 125.847 61.399 126.868 60.828 L 126.868 60.828 L 126.868 60.828 Q 127.89 60.257 128.967 60.037 L 128.967 60.037 L 128.967 60.037 Q 130.043 59.817 131.054 59.817 L 131.054 59.817 L 131.054 59.817 Q 132.548 59.817 133.911 60.377 L 133.911 60.377 L 133.911 60.377 Q 135.273 60.938 136.295 61.916 L 136.295 61.916 L 136.295 61.916 Q 137.316 62.893 137.921 64.212 L 137.921 64.212 L 137.921 64.212 Q 138.525 65.53 138.525 67.024 Z  M 156.301 86.294 L 151.225 86.602 L 151.225 86.602 Q 151.093 85.921 150.983 85.218 L 150.983 85.218 L 150.983 85.218 Q 150.874 84.514 150.808 83.767 L 150.808 83.767 L 150.808 83.767 Q 149.797 85.262 148.391 86.064 L 148.391 86.064 L 148.391 86.064 Q 146.984 86.866 145.314 86.866 L 145.314 86.866 L 145.314 86.866 Q 144.458 86.866 143.557 86.591 L 143.557 86.591 L 143.557 86.591 Q 142.656 86.316 141.92 85.635 L 141.92 85.635 L 141.92 85.635 Q 141.184 84.954 140.711 83.778 L 140.711 83.778 L 140.711 83.778 Q 140.239 82.603 140.239 80.801 L 140.239 80.801 L 140.239 80.801 Q 140.239 79.307 140.678 78.197 L 140.678 78.197 L 140.678 78.197 Q 141.118 77.088 141.821 76.253 L 141.821 76.253 L 141.821 76.253 Q 142.524 75.418 143.403 74.803 L 143.403 74.803 L 143.403 74.803 Q 144.282 74.187 145.15 73.704 L 145.15 73.704 L 145.15 73.704 Q 146.018 73.221 146.809 72.803 L 146.809 72.803 L 146.809 72.803 Q 147.6 72.386 148.105 71.968 L 148.105 71.968 L 148.105 71.968 Q 149.072 71.199 149.786 70.331 L 149.786 70.331 L 149.786 70.331 Q 150.5 69.463 150.939 68.518 L 150.939 68.518 L 150.939 68.518 Q 150.852 67.002 150.621 66.024 L 150.621 66.024 L 150.621 66.024 Q 150.39 65.047 150.017 64.464 L 150.017 64.464 L 150.017 64.464 Q 149.643 63.882 149.105 63.651 L 149.105 63.651 L 149.105 63.651 Q 148.566 63.421 147.885 63.421 L 147.885 63.421 L 147.885 63.421 Q 146.875 63.421 146.182 63.86 L 146.182 63.86 L 146.182 63.86 Q 145.49 64.3 145.051 64.915 L 145.051 64.915 L 145.051 64.915 Q 145.6 65.266 145.897 65.662 L 145.897 65.662 L 145.897 65.662 Q 146.193 66.057 146.347 66.431 L 146.347 66.431 L 146.347 66.431 Q 146.523 66.848 146.545 67.288 L 146.545 67.288 L 146.545 67.288 Q 146.545 68.782 145.699 69.573 L 145.699 69.573 L 145.699 69.573 Q 144.853 70.364 143.535 70.364 L 143.535 70.364 L 143.535 70.364 Q 142.854 70.364 142.282 70.045 L 142.282 70.045 L 142.282 70.045 Q 141.711 69.727 141.282 69.156 L 141.282 69.156 L 141.282 69.156 Q 140.854 68.584 140.612 67.793 L 140.612 67.793 L 140.612 67.793 Q 140.371 67.002 140.371 66.079 L 140.371 66.079 L 140.371 66.079 Q 140.371 65.157 140.788 64.124 L 140.788 64.124 L 140.788 64.124 Q 141.206 63.091 142.128 62.201 L 142.128 62.201 L 142.128 62.201 Q 143.051 61.311 144.501 60.729 L 144.501 60.729 L 144.501 60.729 Q 145.952 60.147 148.017 60.147 L 148.017 60.147 L 148.017 60.147 Q 150.083 60.147 151.555 60.949 L 151.555 60.949 L 151.555 60.949 Q 153.027 61.751 153.972 63.08 L 153.972 63.08 L 153.972 63.08 Q 154.917 64.409 155.345 66.145 L 155.345 66.145 L 155.345 66.145 Q 155.773 67.881 155.773 69.727 L 155.773 69.727 L 155.773 69.727 Q 155.773 71.111 155.751 72.737 L 155.751 72.737 L 155.751 72.737 Q 155.729 74.363 155.729 76.077 L 155.729 76.077 L 155.729 76.077 Q 155.729 77.505 155.751 78.933 L 155.751 78.933 L 155.751 78.933 Q 155.773 80.362 155.839 81.691 L 155.839 81.691 L 155.839 81.691 Q 155.905 83.02 156.015 84.196 L 156.015 84.196 L 156.015 84.196 Q 156.125 85.371 156.301 86.294 L 156.301 86.294 Z  M 150.72 78.406 L 150.896 73.726 L 150.896 73.726 Q 150.126 74.649 149.248 75.308 L 149.248 75.308 L 149.248 75.308 Q 148.588 75.769 147.83 76.341 L 147.83 76.341 L 147.83 76.341 Q 147.072 76.912 146.424 77.549 L 146.424 77.549 L 146.424 77.549 Q 145.776 78.186 145.347 78.878 L 145.347 78.878 L 145.347 78.878 Q 144.919 79.571 144.919 80.296 L 144.919 80.296 L 144.919 80.296 Q 144.919 81.284 145.402 81.988 L 145.402 81.988 L 145.402 81.988 Q 145.886 82.691 146.765 82.691 L 146.765 82.691 L 146.765 82.691 Q 147.578 82.691 148.215 82.251 L 148.215 82.251 L 148.215 82.251 Q 148.852 81.812 149.346 81.164 L 149.346 81.164 L 149.346 81.164 Q 149.841 80.515 150.181 79.768 L 150.181 79.768 L 150.181 79.768 Q 150.522 79.021 150.72 78.406 L 150.72 78.406 Z  M 158.718 52.72 L 165.112 52.632 L 165.112 52.632 Q 164.848 55.511 164.65 58.334 L 164.65 58.334 L 164.65 58.334 Q 164.453 61.158 164.299 64.014 L 164.299 64.014 L 164.299 64.014 Q 165.046 62.674 165.903 61.938 L 165.903 61.938 L 165.903 61.938 Q 166.76 61.201 167.507 60.85 L 167.507 60.85 L 167.507 60.85 Q 168.386 60.454 169.221 60.367 L 169.221 60.367 L 169.221 60.367 Q 170.803 60.367 172.033 61.026 L 172.033 61.026 L 172.033 61.026 Q 173.264 61.685 174.11 63.278 L 174.11 63.278 L 174.11 63.278 Q 174.956 64.871 175.395 67.519 L 175.395 67.519 L 175.395 67.519 Q 175.834 70.166 175.834 74.143 L 175.834 74.143 L 175.834 74.143 Q 175.834 77.813 175.142 80.307 L 175.142 80.307 L 175.142 80.307 Q 174.45 82.801 173.363 84.328 L 173.363 84.328 L 173.363 84.328 Q 172.275 85.855 170.946 86.525 L 170.946 86.525 L 170.946 86.525 Q 169.616 87.195 168.32 87.195 L 168.32 87.195 L 168.32 87.195 Q 168.188 87.195 167.738 87.14 L 167.738 87.14 L 167.738 87.14 Q 167.287 87.085 166.65 86.811 L 166.65 86.811 L 166.65 86.811 Q 166.013 86.536 165.288 85.987 L 165.288 85.987 L 165.288 85.987 Q 164.563 85.437 163.903 84.449 L 163.903 84.449 L 163.903 86.866 L 158.959 86.778 L 158.959 86.778 Q 159.157 83.57 159.234 80.384 L 159.234 80.384 L 159.234 80.384 Q 159.311 77.198 159.311 74.012 L 159.311 74.012 L 159.311 74.012 Q 159.311 68.65 159.135 63.366 L 159.135 63.366 L 159.135 63.366 Q 158.959 58.081 158.718 52.72 L 158.718 52.72 Z  M 166.694 83.13 L 166.694 83.13 L 166.694 83.13 Q 166.804 83.174 166.925 83.174 L 166.925 83.174 L 166.925 83.174 Q 167.045 83.174 167.177 83.174 L 167.177 83.174 L 167.177 83.174 Q 167.771 83.174 168.419 82.768 L 168.419 82.768 L 168.419 82.768 Q 169.067 82.361 169.594 81.328 L 169.594 81.328 L 169.594 81.328 Q 170.122 80.296 170.473 78.527 L 170.473 78.527 L 170.473 78.527 Q 170.825 76.758 170.825 74.012 L 170.825 74.012 L 170.825 74.012 Q 170.825 71.551 170.594 69.914 L 170.594 69.914 L 170.594 69.914 Q 170.363 68.277 169.968 67.288 L 169.968 67.288 L 169.968 67.288 Q 169.572 66.299 169.045 65.893 L 169.045 65.893 L 169.045 65.893 Q 168.518 65.486 167.946 65.486 L 167.946 65.486 L 167.946 65.486 Q 167.353 65.486 166.859 65.805 L 166.859 65.805 L 166.859 65.805 Q 166.364 66.123 165.969 66.64 L 165.969 66.64 L 165.969 66.64 Q 165.573 67.156 165.255 67.815 L 165.255 67.815 L 165.255 67.815 Q 164.936 68.474 164.694 69.123 L 164.694 69.123 L 164.694 69.123 Q 164.453 69.771 164.288 70.375 L 164.288 70.375 L 164.288 70.375 Q 164.123 70.979 164.035 71.397 L 164.035 71.397 L 164.035 71.397 Q 163.903 75.725 163.903 79.988 L 163.903 79.988 L 163.903 79.988 Q 164.409 81.043 164.914 81.658 L 164.914 81.658 L 164.914 81.658 Q 165.419 82.273 165.815 82.603 L 165.815 82.603 L 165.815 82.603 Q 166.276 82.998 166.694 83.13 Z  M 184.689 85.921 L 184.689 85.921 L 178.889 86.514 L 178.889 86.514 Q 178.933 85.042 178.966 83.449 L 178.966 83.449 L 178.966 83.449 Q 178.999 81.856 179.021 80.274 L 179.021 80.274 L 179.021 80.274 Q 179.042 78.692 179.064 77.165 L 179.064 77.165 L 179.064 77.165 Q 179.086 75.638 179.086 74.275 L 179.086 74.275 L 179.086 74.275 Q 179.108 71.067 179.108 67.969 L 179.108 67.969 L 179.108 67.969 Q 179.086 65.2 179.042 62.608 L 179.042 62.608 L 179.042 62.608 Q 179.021 61.509 178.988 60.345 L 178.988 60.345 L 178.988 60.345 Q 178.955 59.18 178.911 58.059 L 178.911 58.059 L 178.911 58.059 Q 178.867 56.939 178.812 55.939 L 178.812 55.939 L 178.812 55.939 Q 178.757 54.939 178.669 54.148 L 178.669 54.148 L 184.206 53.885 L 184.206 53.885 Q 184.162 55.247 184.129 56.686 L 184.129 56.686 L 184.129 56.686 Q 184.096 58.125 184.074 59.543 L 184.074 59.543 L 184.074 59.543 Q 184.052 60.96 184.041 62.278 L 184.041 62.278 L 184.041 62.278 Q 184.03 63.596 184.03 64.739 L 184.03 64.739 L 184.03 64.739 Q 184.03 70.474 184.173 75.67 L 184.173 75.67 L 184.173 75.67 Q 184.316 80.867 184.689 85.921 Z  M 190.095 52.39 L 195.676 52.303 L 195.676 52.303 Q 195.5 54.566 195.39 56.752 L 195.39 56.752 L 195.39 56.752 Q 195.28 58.938 195.17 61.136 L 195.17 61.136 L 195.17 61.136 Q 196.137 61.092 197.082 61.059 L 197.082 61.059 L 197.082 61.059 Q 198.027 61.026 199.016 60.96 L 199.016 60.96 L 199.104 66.585 L 199.104 66.585 Q 198.049 66.409 197.016 66.299 L 197.016 66.299 L 197.016 66.299 Q 195.983 66.189 194.995 66.123 L 194.995 66.123 L 194.995 66.123 Q 194.929 67.991 194.918 69.815 L 194.918 69.815 L 194.918 69.815 Q 194.907 71.638 194.907 73.506 L 194.907 73.506 L 194.907 73.506 Q 194.907 76.846 194.984 80.142 L 194.984 80.142 L 194.984 80.142 Q 195.061 83.438 195.236 86.778 L 195.236 86.778 L 189.501 86.69 L 189.501 86.69 Q 189.787 81.526 189.974 76.374 L 189.974 76.374 L 189.974 76.374 Q 190.161 71.221 190.227 65.992 L 190.227 65.992 L 190.227 65.992 Q 189.304 66.035 188.381 66.09 L 188.381 66.09 L 188.381 66.09 Q 187.458 66.145 186.491 66.211 L 186.491 66.211 L 186.667 61.004 L 186.667 61.004 Q 187.568 61.07 188.458 61.103 L 188.458 61.103 L 188.458 61.103 Q 189.348 61.136 190.227 61.18 L 190.227 61.18 L 190.227 61.18 Q 190.227 58.982 190.183 56.796 L 190.183 56.796 L 190.183 56.796 Q 190.139 54.61 190.095 52.39 L 190.095 52.39 Z  M 200.817 54.06 L 207.695 54.06 L 207.695 54.06 Q 207.014 60.41 206.497 66.453 L 206.497 66.453 L 206.497 66.453 Q 205.981 72.495 205.717 78.494 L 205.717 78.494 L 202.29 78.494 L 202.29 78.494 Q 202.224 72.43 201.872 66.233 L 201.872 66.233 L 201.872 66.233 Q 201.521 60.037 200.817 54.06 L 200.817 54.06 Z  M 206.97 83.636 L 206.97 83.636 L 206.97 83.636 Q 206.97 84.229 206.739 84.745 L 206.739 84.745 L 206.739 84.745 Q 206.508 85.262 206.124 85.657 L 206.124 85.657 L 206.124 85.657 Q 205.739 86.053 205.212 86.283 L 205.212 86.283 L 205.212 86.283 Q 204.685 86.514 204.091 86.514 L 204.091 86.514 L 204.091 86.514 Q 203.476 86.514 202.949 86.283 L 202.949 86.283 L 202.949 86.283 Q 202.421 86.053 202.026 85.657 L 202.026 85.657 L 202.026 85.657 Q 201.63 85.262 201.4 84.745 L 201.4 84.745 L 201.4 84.745 Q 201.169 84.229 201.169 83.636 L 201.169 83.636 L 201.169 83.636 Q 201.169 83.02 201.4 82.493 L 201.4 82.493 L 201.4 82.493 Q 201.63 81.966 202.026 81.57 L 202.026 81.57 L 202.026 81.57 Q 202.421 81.175 202.949 80.944 L 202.949 80.944 L 202.949 80.944 Q 203.476 80.713 204.091 80.713 L 204.091 80.713 L 204.091 80.713 Q 204.685 80.713 205.212 80.944 L 205.212 80.944 L 205.212 80.944 Q 205.739 81.175 206.124 81.57 L 206.124 81.57 L 206.124 81.57 Q 206.508 81.966 206.739 82.493 L 206.739 82.493 L 206.739 82.493 Q 206.97 83.02 206.97 83.636 Z " fill-rule="evenodd" fill="url(#_lgradient_9)"/><linearGradient id="_lgradient_10" x1="50%" y1="-1.4423274390583094%" x2="49.999999999999986%" y2="101.72446962190446%"><stop offset="0%" stop-opacity="1" style="stop-color:rgb(26,109,255)"/><stop offset="100%" stop-opacity="1" style="stop-color:rgb(200,34,255)"/></linearGradient><path d=" M 274.104 0.001 C 272.153 -0.032 270.272 0.727 268.891 2.106 L 265.682 5.413 L 286.835 26.668 L 290.043 23.364 C 291.44 21.968 292.225 20.074 292.225 18.099 C 292.225 16.124 291.44 14.23 290.043 12.834 L 279.417 2.205 C 278.004 0.801 276.096 0.01 274.104 0.001 Z  M 262.073 8.323 L 257.059 13.136 L 279.116 35.193 L 284.23 30.48 L 262.073 8.323 Z  M 253.847 16.646 L 219.165 51.029 C 218.369 51.438 217.786 52.168 217.561 53.034 L 210.137 78.203 C 209.799 79.311 210.097 80.516 210.914 81.338 C 211.736 82.154 212.94 82.453 214.048 82.114 L 239.214 74.693 C 240.378 74.517 241.345 73.704 241.72 72.589 L 275.907 38.699 L 267.386 30.178 L 267.287 30.178 L 261.569 24.365 L 253.847 16.646 Z  M 222.967 56.749 L 224.674 58.45 L 232.993 59.155 L 233.394 67.272 L 235.502 69.38 L 221.963 73.291 L 218.957 70.282 L 222.967 56.749 Z " fill="url(#_lgradient_10)"/></g></svg>